<svg xmlns="http://www.w3.org/2000/svg" width="1600" height="900" viewBox="0 0 1600 900"><rect x="0" y="0" width="1600" height="900" fill="#EFE7D4"/><rect x="80" y="70" width="330" height="44" fill="#E89CB1" stroke="#2E4A2A" stroke-width="2"/><text x="245" y="99" text-anchor="middle" font-size="18" font-weight="700" fill="#243A21">STANDARD WORKFLOW</text><text x="80" y="183" font-size="54" font-weight="700" fill="#2E4A2A">从原始材料到可验收文档</text><rect x="1130" y="96" width="370" height="64" fill="#E6DCC4" stroke="#2E4A2A" stroke-width="2"/><text x="1315" y="136" text-anchor="middle" font-size="22" font-weight="700" fill="#2E4A2A">可编辑 · 可追溯 · 可验证</text><line x1="80" y1="214" x2="1500" y2="214" stroke="#2E4A2A" stroke-width="3"/><rect x="80" y="250" width="430" height="210" fill="#FFFFFF" stroke="#2E4A2A" stroke-width="3"/><rect x="104" y="274" width="72" height="58" fill="#E89CB1" stroke="#2E4A2A" stroke-width="2"/><text x="140" y="313" text-anchor="middle" font-size="25" font-weight="700" fill="#243A21">01</text><text x="198" y="312" font-size="27" font-weight="700" fill="#2E4A2A">材料进入</text><line x1="104" y1="350" x2="486" y2="350" stroke="#2E4A2A" stroke-width="2"/><text x="104" y="387" font-size="21" font-weight="400" fill="#1A1A17"><tspan x="104" dy="0">文字、会议纪要、图片、PDF、</tspan><tspan x="104" dy="29">Word、PPT</tspan></text><rect x="570" y="250" width="430" height="210" fill="#E5EDD6" stroke="#2E4A2A" stroke-width="3"/><rect x="594" y="274" width="72" height="58" fill="#E89CB1" stroke="#2E4A2A" stroke-width="2"/><text x="630" y="313" text-anchor="middle" font-size="25" font-weight="700" fill="#243A21">02</text><text x="688" y="312" font-size="27" font-weight="700" fill="#2E4A2A">内容预整理</text><line x1="594" y1="350" x2="976" y2="350" stroke="#2E4A2A" stroke-width="2"/><text x="594" y="387" font-size="21" font-weight="400" fill="#1A1A17"><tspan x="594" dy="0">提取事实、区分结论、标记来源</tspan></text><rect x="1060" y="250" width="430" height="210" fill="#F2D4CF" stroke="#2E4A2A" stroke-width="3"/><rect x="1084" y="274" width="72" height="58" fill="#E89CB1" stroke="#2E4A2A" stroke-width="2"/><text x="1120" y="313" text-anchor="middle" font-size="25" font-weight="700" fill="#243A21">03</text><text x="1178" y="312" font-size="27" font-weight="700" fill="#2E4A2A">视觉编译</text><line x1="1084" y1="350" x2="1466" y2="350" stroke="#2E4A2A" stroke-width="2"/><text x="1084" y="387" font-size="21" font-weight="400" fill="#1A1A17"><tspan x="1084" dy="0">选择模板、生成画板、整理附件</tspan></text><rect x="1060" y="525" width="430" height="210" fill="#FFFFFF" stroke="#2E4A2A" stroke-width="3"/><rect x="1084" y="549" width="72" height="58" fill="#E89CB1" stroke="#2E4A2A" stroke-width="2"/><text x="1120" y="588" text-anchor="middle" font-size="25" font-weight="700" fill="#243A21">04</text><text x="1178" y="587" font-size="27" font-weight="700" fill="#2E4A2A">飞书发布</text><line x1="1084" y1="625" x2="1466" y2="625" stroke="#2E4A2A" stroke-width="2"/><text x="1084" y="662" font-size="21" font-weight="400" fill="#1A1A17"><tspan x="1084" dy="0">创建文档、上传素材、插入画板</tspan></text><rect x="570" y="525" width="430" height="210" fill="#E5EDD6" stroke="#2E4A2A" stroke-width="3"/><rect x="594" y="549" width="72" height="58" fill="#E89CB1" stroke="#2E4A2A" stroke-width="2"/><text x="630" y="588" text-anchor="middle" font-size="25" font-weight="700" fill="#243A21">05</text><text x="688" y="587" font-size="27" font-weight="700" fill="#2E4A2A">质量验收</text><line x1="594" y1="625" x2="976" y2="625" stroke="#2E4A2A" stroke-width="2"/><text x="594" y="662" font-size="21" font-weight="400" fill="#1A1A17"><tspan x="594" dy="0">检查访问、完整性、PDF 和空白页</tspan></text><rect x="80" y="525" width="430" height="210" fill="#F2D4CF" stroke="#2E4A2A" stroke-width="3"/><rect x="104" y="549" width="72" height="58" fill="#E89CB1" stroke="#2E4A2A" stroke-width="2"/><text x="140" y="588" text-anchor="middle" font-size="25" font-weight="700" fill="#243A21">06</text><text x="198" y="587" font-size="27" font-weight="700" fill="#2E4A2A">完成交付</text><line x1="104" y1="625" x2="486" y2="625" stroke="#2E4A2A" stroke-width="2"/><text x="104" y="662" font-size="21" font-weight="400" fill="#1A1A17"><tspan x="104" dy="0">返回链接、文件、清单与消息回执</tspan></text><line x1="518" y1="355" x2="562" y2="355" stroke="#2E4A2A" stroke-width="5"/><line x1="1008" y1="355" x2="1052" y2="355" stroke="#2E4A2A" stroke-width="5"/><line x1="1275" y1="468" x2="1275" y2="517" stroke="#2E4A2A" stroke-width="5"/><line x1="1008" y1="630" x2="1052" y2="630" stroke="#2E4A2A" stroke-width="5"/><line x1="518" y1="630" x2="562" y2="630" stroke="#2E4A2A" stroke-width="5"/><line x1="80" y1="798" x2="1500" y2="798" stroke="#2E4A2A" stroke-width="2"/><text x="80" y="845" font-size="20" fill="#1A1A17">同一份 Body，稳定生成正文、画板、清单与交付证据。</text><text x="1500" y="845" text-anchor="end" font-size="20" font-weight="700" fill="#2E4A2A">HEIGE FEISHU WORD · MVP</text></svg>
